<svg
    viewBox="0 0 1000 1000"
    width="19"
    height="19"
    fill="white"
    xmlns="http://www.w3.org/2000/svg"
>
<path d="m980.2 229.4c-8.2-7.7-19.9-10.6-30.6-7.4l-53.8 15.9-6.5-9.2c-12.1-17.1-25.3-33.4-39.3-48.4-77.8-83.6-182.8-136.5-295.8-149.1-17.6-2-35.4-2.9-53-2.9-98.6 0-193.2 29.9-273.6 86.4-87.5 61.5-152.4 151.7-182.8 253.7-2.4 8.2-1.4 17 2.8 24.5 4.2 7.4 11.3 12.9 19.5 15l61 15.8c16.3 4.2 33.1-5.2 38-21.3 22.6-74.2 70.1-139.7 133.9-184.6 59.1-41.5 128.6-63.5 201.1-63.5 13 0 26.2 0.7 39.1 2.2 78.5 8.7 152.6 44.5 208.6 100.6l18.7 18.7-36.9 10.9c-10.8 3.2-19.1 11.9-21.7 22.9-2.6 10.9 0.8 22.5 8.9 30.2l165.7 157.2c5.9 5.6 13.7 8.7 21.7 8.7 3 0 6-0.4 8.9-1.3 10.8-3.2 19.1-11.9 21.7-22.9l53.3-221.9c2.6-11-0.8-22.5-8.9-30.2z"/>
<path d="m932.9 592.1-61-15.8c-16.4-4.2-33.1 5.2-38.1 21.3-22.5 74.2-70.1 139.7-133.8 184.6-59.1 41.5-128.6 63.5-201.1 63.5-13 0-26.2-0.7-39.1-2.2-78.5-8.7-152.6-44.5-208.6-100.7l-18.7-18.7 36.9-10.9c10.8-3.2 19.1-11.9 21.7-22.9 2.6-10.9-0.8-22.5-8.9-30.2l-165.7-157.1c-8.2-7.7-19.9-10.6-30.6-7.4-10.8 3.2-19.1 11.9-21.7 22.8l-53.3 222c-2.6 10.9 0.8 22.5 8.9 30.2 8.2 7.7 19.9 10.6 30.6 7.4l53.8-15.9 6.5 9.2c12.1 17.1 25.3 33.4 39.3 48.4 77.7 83.6 182.7 136.5 295.6 149.1 17.6 2 35.4 2.9 53 2.9 98.6 0 193.2-29.9 273.6-86.4 87.5-61.5 152.4-151.6 182.7-253.7 2.4-8.2 1.4-17-2.8-24.5-3.9-7.5-10.9-12.9-19.2-15z"/>
</svg>